<svg xmlns="http://www.w3.org/2000/svg" width="12.986" height="17.986" viewBox="0 0 12.986 17.986"><g transform="translate(-1836.015 -7190.015)"><g transform="translate(1836 7208) rotate(-90)"><path d="M17.74,5.887,12.388.272a.809.809,0,0,0-1.183,0,.908.908,0,0,0,0,1.241L15.13,5.63H.836a.878.878,0,0,0,0,1.755H15.13L11.206,11.5a.908.908,0,0,0,0,1.241.809.809,0,0,0,1.183,0L17.74,7.128A.908.908,0,0,0,17.74,5.887Z"/></g><path d="M1841.631,7207.163v-14.292l-4.117,3.923a.906.906,0,0,1-1.241,0,.807.807,0,0,1,0-1.183l5.615-5.351a.906.906,0,0,1,1.241,0l5.615,5.351a.809.809,0,0,1,0,1.183.906.906,0,0,1-1.241,0l-4.117-3.923v14.292a.878.878,0,0,1-1.755,0Z" fill="#00c3ff"/></g></svg>