<svg xmlns="http://www.w3.org/2000/svg" width="15" height="12.968" viewBox="0 0 15 12.968"><defs><style>.a{fill:#00c3ff;}</style></defs><g transform="translate(-1562.051 -19.016)"><g transform="translate(1562 19)"><path d="M1.391,12.984a1.234,1.234,0,0,1-.946-.433A1.493,1.493,0,0,1,.051,11.51V4.2A4.585,4.585,0,0,0,.9,5q3.03,2.266,4.16,3.177.477.387.774.6a4.639,4.639,0,0,0,.791.442,2.227,2.227,0,0,0,.921.226H7.56a2.226,2.226,0,0,0,.921-.226,4.632,4.632,0,0,0,.791-.442q.3-.216.774-.6Q11.469,7.043,14.214,5a4.779,4.779,0,0,0,.837-.8V11.51a1.493,1.493,0,0,1-.393,1.041,1.233,1.233,0,0,1-.946.433ZM7.551,8.268H7.543a1.221,1.221,0,0,1-.419-.083,2.43,2.43,0,0,1-.481-.248q-.255-.166-.435-.3t-.452-.35L5.4,7.006q-.762-.589-2.193-1.681T1.491,4.013A4.376,4.376,0,0,1,.512,2.95a2.278,2.278,0,0,1-.46-1.257A1.987,1.987,0,0,1,.4.495,1.152,1.152,0,0,1,1.391.016H13.712a1.238,1.238,0,0,1,.942.433,1.485,1.485,0,0,1,.4,1.041,2.6,2.6,0,0,1-.41,1.391A4.2,4.2,0,0,1,13.62,4.013L9.7,7.006q-.084.065-.356.281t-.452.35q-.18.134-.435.3a2.43,2.43,0,0,1-.481.248,1.221,1.221,0,0,1-.419.083Z"/></g><path class="a" d="M1563.391,31.984a1.232,1.232,0,0,1-.946-.434,1.488,1.488,0,0,1-.393-1.04V23.2a4.574,4.574,0,0,0,.845.8q3.029,2.267,4.16,3.178c.319.257.576.459.775.6a4.637,4.637,0,0,0,.791.442,2.225,2.225,0,0,0,.921.226h.016a2.225,2.225,0,0,0,.921-.226,4.637,4.637,0,0,0,.791-.442q.3-.216.775-.6,1.421-1.133,4.168-3.178a4.755,4.755,0,0,0,.837-.8V30.51a1.488,1.488,0,0,1-.393,1.04,1.233,1.233,0,0,1-.946.434Zm6.16-4.716h-.008a1.227,1.227,0,0,1-.418-.083,2.439,2.439,0,0,1-.482-.248q-.257-.166-.436-.3c-.12-.089-.271-.205-.452-.35l-.356-.281q-.763-.589-2.193-1.68t-1.716-1.313a4.366,4.366,0,0,1-.979-1.064,2.275,2.275,0,0,1-.46-1.257,1.988,1.988,0,0,1,.346-1.2,1.153,1.153,0,0,1,.993-.479h12.321a1.236,1.236,0,0,1,.941.433,1.483,1.483,0,0,1,.4,1.04,2.6,2.6,0,0,1-.41,1.39,4.179,4.179,0,0,1-1.021,1.133l-3.918,2.993q-.084.065-.355.281c-.182.145-.332.261-.452.35s-.266.189-.436.3a2.439,2.439,0,0,1-.482.248,1.227,1.227,0,0,1-.418.083Z"/></g></svg>