<svg xmlns="http://www.w3.org/2000/svg" width="60.896" height="10.919" viewBox="0 0 60.896 10.919"><defs><style>.a{fill:#a5b7d2;}</style></defs><g transform="translate(-376.051 -402.999)"><g transform="translate(376 403)"><path d="M10.711,4.947a.838.838,0,0,0,.2-.838.787.787,0,0,0-.631-.556l-2.638-.4a.346.346,0,0,1-.26-.2L6.2.455a.767.767,0,0,0-1.4,0l-1.18,2.5a.347.347,0,0,1-.26.2l-2.638.4A.787.787,0,0,0,.09,4.11a.838.838,0,0,0,.2.838L2.2,6.894a.372.372,0,0,1,.1.319l-.45,2.748a.827.827,0,0,0,.17.663.766.766,0,0,0,.963.2l2.359-1.3a.339.339,0,0,1,.321,0l2.36,1.3a.746.746,0,0,0,.363.1.77.77,0,0,0,.6-.294.826.826,0,0,0,.17-.663L8.7,7.213a.371.371,0,0,1,.1-.319Z"/></g><path class="a" d="M384.02,413.823l-2.36-1.3a.341.341,0,0,0-.321,0l-2.359,1.3a.768.768,0,0,1-.964-.2.829.829,0,0,1-.17-.662l.45-2.749a.371.371,0,0,0-.1-.319l-1.909-1.946a.837.837,0,0,1-.2-.838.788.788,0,0,1,.631-.556l2.639-.4a.344.344,0,0,0,.259-.2l1.18-2.5a.767.767,0,0,1,1.4,0l1.18,2.5a.346.346,0,0,0,.259.2l2.639.4a.787.787,0,0,1,.631.556.839.839,0,0,1-.2.838l-1.909,1.946a.371.371,0,0,0-.1.319l.45,2.749a.825.825,0,0,1-.17.662.772.772,0,0,1-.6.294A.746.746,0,0,1,384.02,413.823Z"/><g transform="translate(389 403)"><path d="M10.711,4.947a.838.838,0,0,0,.2-.838.787.787,0,0,0-.631-.556l-2.638-.4a.346.346,0,0,1-.26-.2L6.2.455a.767.767,0,0,0-1.4,0l-1.18,2.5a.347.347,0,0,1-.26.2l-2.638.4A.787.787,0,0,0,.09,4.11a.838.838,0,0,0,.2.838L2.2,6.894a.372.372,0,0,1,.1.319l-.45,2.748a.827.827,0,0,0,.17.663.766.766,0,0,0,.963.2l2.359-1.3a.339.339,0,0,1,.321,0l2.36,1.3a.746.746,0,0,0,.363.1.77.77,0,0,0,.6-.294.826.826,0,0,0,.17-.663L8.7,7.213a.371.371,0,0,1,.1-.319Z"/></g><path class="a" d="M397.02,413.823l-2.36-1.3a.34.34,0,0,0-.32,0l-2.36,1.3a.766.766,0,0,1-.963-.2.826.826,0,0,1-.171-.662l.451-2.749a.372.372,0,0,0-.1-.319l-1.909-1.946a.838.838,0,0,1-.2-.838.787.787,0,0,1,.631-.556l2.638-.4a.345.345,0,0,0,.26-.2l1.18-2.5a.767.767,0,0,1,1.4,0l1.179,2.5a.347.347,0,0,0,.26.2l2.638.4a.785.785,0,0,1,.631.556.839.839,0,0,1-.2.838l-1.909,1.946a.372.372,0,0,0-.1.319l.451,2.749a.826.826,0,0,1-.171.662.772.772,0,0,1-.6.294A.752.752,0,0,1,397.02,413.823Z"/><g transform="translate(401 403)"><path d="M10.711,4.947a.838.838,0,0,0,.2-.838.787.787,0,0,0-.631-.556l-2.638-.4a.346.346,0,0,1-.26-.2L6.2.455a.767.767,0,0,0-1.4,0l-1.18,2.5a.347.347,0,0,1-.26.2l-2.638.4A.787.787,0,0,0,.09,4.11a.838.838,0,0,0,.2.838L2.2,6.894a.372.372,0,0,1,.1.319l-.45,2.748a.827.827,0,0,0,.17.663.766.766,0,0,0,.963.2l2.359-1.3a.339.339,0,0,1,.321,0l2.36,1.3a.746.746,0,0,0,.363.1.77.77,0,0,0,.6-.294.826.826,0,0,0,.17-.663L8.7,7.213a.371.371,0,0,1,.1-.319Z"/></g><path class="a" d="M409.02,413.823l-2.36-1.3a.341.341,0,0,0-.321,0l-2.36,1.3a.766.766,0,0,1-.963-.2.825.825,0,0,1-.17-.662l.45-2.749a.374.374,0,0,0-.1-.319l-1.909-1.946a.837.837,0,0,1-.2-.838.788.788,0,0,1,.631-.556l2.638-.4a.345.345,0,0,0,.26-.2l1.18-2.5a.767.767,0,0,1,1.4,0l1.18,2.5a.345.345,0,0,0,.259.2l2.638.4a.787.787,0,0,1,.632.556.841.841,0,0,1-.2.838l-1.909,1.946a.375.375,0,0,0-.1.319l.451,2.749a.828.828,0,0,1-.17.662.772.772,0,0,1-.6.294A.746.746,0,0,1,409.02,413.823Z"/><g transform="translate(414 403)"><path d="M10.711,4.947a.838.838,0,0,0,.2-.838.787.787,0,0,0-.631-.556l-2.638-.4a.346.346,0,0,1-.26-.2L6.2.455a.767.767,0,0,0-1.4,0l-1.18,2.5a.347.347,0,0,1-.26.2l-2.638.4A.787.787,0,0,0,.09,4.11a.838.838,0,0,0,.2.838L2.2,6.894a.372.372,0,0,1,.1.319l-.45,2.748a.827.827,0,0,0,.17.663.766.766,0,0,0,.963.2l2.359-1.3a.339.339,0,0,1,.321,0l2.36,1.3a.746.746,0,0,0,.363.1.77.77,0,0,0,.6-.294.826.826,0,0,0,.17-.663L8.7,7.213a.371.371,0,0,1,.1-.319Z"/></g><path class="a" d="M422.02,413.823l-2.36-1.3a.341.341,0,0,0-.321,0l-2.359,1.3a.768.768,0,0,1-.964-.2.828.828,0,0,1-.17-.662l.45-2.749a.371.371,0,0,0-.1-.319l-1.909-1.946a.841.841,0,0,1-.2-.838.788.788,0,0,1,.631-.556l2.639-.4a.345.345,0,0,0,.26-.2l1.179-2.5a.767.767,0,0,1,1.4,0l1.18,2.5a.347.347,0,0,0,.26.2l2.638.4a.785.785,0,0,1,.631.556.837.837,0,0,1-.2.838l-1.909,1.946a.374.374,0,0,0-.1.319l.45,2.749a.822.822,0,0,1-.17.662.772.772,0,0,1-.6.294A.752.752,0,0,1,422.02,413.823Z"/><g transform="translate(426 403)"><path d="M10.711,4.947a.838.838,0,0,0,.2-.838.787.787,0,0,0-.631-.556l-2.638-.4a.346.346,0,0,1-.26-.2L6.2.455a.767.767,0,0,0-1.4,0l-1.18,2.5a.347.347,0,0,1-.26.2l-2.638.4A.787.787,0,0,0,.09,4.11a.838.838,0,0,0,.2.838L2.2,6.894a.372.372,0,0,1,.1.319l-.45,2.748a.827.827,0,0,0,.17.663.766.766,0,0,0,.963.2l2.359-1.3a.339.339,0,0,1,.321,0l2.36,1.3a.746.746,0,0,0,.363.1.77.77,0,0,0,.6-.294.826.826,0,0,0,.17-.663L8.7,7.213a.371.371,0,0,1,.1-.319Z"/></g><path class="a" d="M434.02,413.823l-2.359-1.3a.341.341,0,0,0-.321,0l-2.36,1.3a.766.766,0,0,1-.963-.2.826.826,0,0,1-.171-.662l.451-2.749a.372.372,0,0,0-.1-.319l-1.909-1.946a.838.838,0,0,1-.2-.838.787.787,0,0,1,.631-.556l2.638-.4a.345.345,0,0,0,.26-.2l1.18-2.5a.767.767,0,0,1,1.4,0l1.179,2.5a.347.347,0,0,0,.26.2l2.638.4a.785.785,0,0,1,.631.556.839.839,0,0,1-.2.838l-1.909,1.946a.372.372,0,0,0-.1.319l.451,2.749a.826.826,0,0,1-.171.662.77.77,0,0,1-.6.294A.752.752,0,0,1,434.02,413.823Z"/></g></svg>