<svg xmlns="http://www.w3.org/2000/svg" width="12.883" height="9.924" viewBox="0 0 12.883 9.924"><defs><style>.a{fill:#a5b7d2;}</style></defs><path class="a" d="M272.883,22.7a5.5,5.5,0,0,1-1.518.393,2.539,2.539,0,0,0,1.162-1.387,5.444,5.444,0,0,1-1.678.608,2.71,2.71,0,0,0-1.929-.789,2.576,2.576,0,0,0-2.643,2.5,2.379,2.379,0,0,0,.069.571A7.638,7.638,0,0,1,260.9,21.98a2.4,2.4,0,0,0-.358,1.26,2.477,2.477,0,0,0,1.176,2.087,2.761,2.761,0,0,1-1.2-.316c0,.011,0,.02,0,.032a2.544,2.544,0,0,0,2.12,2.456,2.7,2.7,0,0,1-.7.089,2.777,2.777,0,0,1-.5-.045,2.632,2.632,0,0,0,2.469,1.739,5.48,5.48,0,0,1-3.283,1.073A5.535,5.535,0,0,1,260,30.32a7.773,7.773,0,0,0,4.052,1.127,7.27,7.27,0,0,0,7.52-7.128c0-.11,0-.217-.008-.325A5.232,5.232,0,0,0,272.883,22.7Z" transform="translate(-259.999 -21.523)"/></svg>