<svg xmlns="http://www.w3.org/2000/svg" width="25" height="25.003" viewBox="0 0 25 25.003"><defs><style>.a{fill:#00c3ff;}</style></defs><g transform="translate(-791 -2155.019)"><g transform="translate(791 2155)"><path d="M13.614,25.022a10.39,10.39,0,0,1-6.94-2.756.329.329,0,0,1-.008-.471l8.7-8.658a.3.3,0,0,1,.211-.088h8.139a.749.749,0,0,1,.734.761,11.39,11.39,0,0,1-3.142,7.93,10.516,10.516,0,0,1-7.589,3.282Zm-8.4-4.38A11.583,11.583,0,0,1,6.238,5.784,10.911,10.911,0,0,1,7.681,4.55l2.379,3.256a.722.722,0,0,0,.584.3.711.711,0,0,0,.445-.157.79.79,0,0,0,.138-1.075L8.957,3.768a10.311,10.311,0,0,1,4.764-1.159.751.751,0,0,1,.734.767v8.414a.326.326,0,0,1-.095.231l-8.7,8.655a.3.3,0,0,1-.452-.035Zm15.972-8.853a.321.321,0,0,1-.213-.548l3.1-3.137a.3.3,0,0,1,.5.125A9.179,9.179,0,0,1,25,11.019a.753.753,0,0,1-.734.769Zm-3.617,0a.321.321,0,0,1-.215-.546L22.788,5.6a.3.3,0,0,1,.459.034q.169.23.324.471a.33.33,0,0,1-.042.407L18.412,11.7a.3.3,0,0,1-.213.09ZM15.787,9.935v-.9a.326.326,0,0,1,.1-.232l5.085-5.022a.3.3,0,0,1,.385-.03q.192.139.376.289a.328.328,0,0,1,.025.476l-5.446,5.648a.293.293,0,0,1-.213.093A.312.312,0,0,1,15.787,9.935Zm0-3.892V2.932a.753.753,0,0,1,.739-.767,8.115,8.115,0,0,1,2.792.5.325.325,0,0,1,.106.532L16.3,6.276a.293.293,0,0,1-.208.088A.312.312,0,0,1,15.787,6.044ZM7.212,3.907H.734A.751.751,0,0,1,0,3.141a.751.751,0,0,1,.734-.767H7.557a.712.712,0,0,1,.438.137H8a.755.755,0,0,1,.175.18l.787,1.076a10.541,10.541,0,0,0-1.275.782ZM3.131,1.552A.751.751,0,0,1,2.4.786.751.751,0,0,1,3.131.019H5.454a.751.751,0,0,1,.734.767.751.751,0,0,1-.734.767Zm4.005,0a.654.654,0,0,1-.071-.011c-.024-.005-.046-.011-.069-.018a.633.633,0,0,1-.068-.026c-.022-.009-.044-.02-.065-.032A.683.683,0,0,1,6.8,1.423a.716.716,0,0,1-.058-.044c-.019-.016-.037-.033-.053-.051A.788.788,0,0,1,6.474.786c0-.025,0-.05,0-.075s.006-.05.011-.075A.614.614,0,0,1,6.506.563c.007-.024.015-.048.024-.071s.02-.046.031-.067A.756.756,0,0,1,6.641.3C6.656.28,6.672.261,6.69.243a.721.721,0,0,1,.591-.22.574.574,0,0,1,.071.011.67.67,0,0,1,.07.018c.023.008.046.016.068.026s.044.02.065.032.042.024.062.038a.725.725,0,0,1,.058.044c.019.016.037.033.054.051A.728.728,0,0,1,7.776.3.7.7,0,0,1,7.818.36a.73.73,0,0,1,.037.064.7.7,0,0,1,.03.067C7.9.516,7.9.539,7.91.563s.013.048.018.073.008.05.011.075,0,.05,0,.075a.79.79,0,0,1-.215.542c-.017.017-.035.035-.054.051a.6.6,0,0,1-.058.044c-.02.014-.041.027-.062.039s-.043.023-.065.032a.683.683,0,0,1-.068.026c-.023.007-.046.013-.07.018a.677.677,0,0,1-.071.011.707.707,0,0,1-.072,0A.7.7,0,0,1,7.136,1.549Z"/></g><path class="a" d="M804.614,2180.022a10.391,10.391,0,0,1-6.941-2.757.329.329,0,0,1-.008-.471l8.7-8.658a.3.3,0,0,1,.211-.088h8.139a.749.749,0,0,1,.734.761,11.387,11.387,0,0,1-3.142,7.93,10.518,10.518,0,0,1-7.59,3.282Zm-8.405-4.381a11.581,11.581,0,0,1,1.029-14.856,10.924,10.924,0,0,1,1.444-1.236l-.47-.642h-6.478a.768.768,0,0,1,0-1.534h6.823a.728.728,0,0,1,.438.138.777.777,0,0,1,.176.18l.787,1.076a10.391,10.391,0,0,0-1.275.781l2.379,3.256a.724.724,0,0,0,.584.3.711.711,0,0,0,.445-.157.79.79,0,0,0,.139-1.074l-2.271-3.108a10.306,10.306,0,0,1,4.764-1.159.751.751,0,0,1,.734.766v8.415a.329.329,0,0,1-.1.231l-8.7,8.655a.3.3,0,0,1-.452-.035Zm15.972-8.853a.321.321,0,0,1-.212-.548l3.1-3.137a.3.3,0,0,1,.5.126,9.205,9.205,0,0,1,.433,2.791.753.753,0,0,1-.734.769Zm-3.616,0a.321.321,0,0,1-.216-.545l5.439-5.64a.3.3,0,0,1,.459.034q.169.229.324.47a.331.331,0,0,1-.041.407l-5.117,5.184a.3.3,0,0,1-.213.09Zm-1.778-1.852v-.9a.328.328,0,0,1,.1-.232l5.085-5.021a.3.3,0,0,1,.385-.031c.128.093.253.19.375.29a.328.328,0,0,1,.025.476l-5.446,5.648a.3.3,0,0,1-.213.093A.312.312,0,0,1,806.787,2164.936Zm0-3.892v-3.112a.754.754,0,0,1,.739-.767,8.111,8.111,0,0,1,2.792.5.325.325,0,0,1,.106.533l-3.121,3.083a.29.29,0,0,1-.208.088A.312.312,0,0,1,806.787,2161.044Zm-8.651-4.5-.071-.011-.07-.019c-.023-.007-.045-.016-.068-.025l-.065-.032a.645.645,0,0,1-.062-.039.576.576,0,0,1-.058-.044.687.687,0,0,1-.053-.05.787.787,0,0,1-.216-.543.7.7,0,0,1,0-.075.665.665,0,0,1,.011-.075.647.647,0,0,1,.017-.073c.007-.024.015-.048.024-.071s.02-.045.031-.067.023-.043.037-.064a.715.715,0,0,1,.043-.061c.015-.019.031-.038.049-.056a.718.718,0,0,1,.59-.221.648.648,0,0,1,.071.011c.023.005.047.011.07.018s.046.016.068.026a.615.615,0,0,1,.065.031c.022.012.042.025.062.039s.04.029.058.044.037.033.054.052.033.037.049.056.029.04.042.061a.551.551,0,0,1,.037.064c.012.022.022.045.031.067s.017.047.024.071.013.049.018.073.008.05.011.075,0,.05,0,.075a.794.794,0,0,1-.214.543c-.017.017-.035.034-.054.05a.576.576,0,0,1-.058.044.549.549,0,0,1-.062.039c-.021.012-.043.022-.065.032s-.045.018-.068.025l-.07.019-.071.011a.635.635,0,0,1-.072,0A.646.646,0,0,1,798.136,2156.549Zm-4.005,0a.767.767,0,0,1,0-1.533h2.323a.767.767,0,0,1,0,1.533Z"/></g></svg>