<svg xmlns="http://www.w3.org/2000/svg" width="25" height="25" viewBox="0 0 25 25"><defs><style>.a{fill:#fff;}</style></defs><path class="a" d="M806.686,2369.587l-2.208-4.523-2.208,4.523a.731.731,0,0,1-.657.413.72.72,0,0,1-.325-.077.75.75,0,0,1-.33-1l2.361-4.836h-9.661a1.685,1.685,0,0,1,0-3.369h21.684a1.685,1.685,0,0,1,0,3.369h-9.7l2.361,4.836a.749.749,0,0,1-.33,1,.717.717,0,0,1-.325.077A.731.731,0,0,1,806.686,2369.587Zm-13.109-9.737a.689.689,0,0,1-.683-.694v-9.414a.688.688,0,0,1,.683-.694h21.847a.688.688,0,0,1,.683.694v9.414a.689.689,0,0,1-.683.694Zm5.505-6.787V2358a.732.732,0,1,0,1.464,0v-4.938a.732.732,0,1,0-1.464,0Zm-2.562-1.617V2358a.733.733,0,1,0,1.465,0v-6.556a.733.733,0,1,0-1.465,0Zm7.443,3.278v3.233a.733.733,0,1,0,1.465,0v-3.233a.733.733,0,1,0-1.465,0Zm-2.424-3.322v6.555a.733.733,0,1,0,1.465,0V2351.4a.733.733,0,1,0-1.465,0Zm4.927,1.778a3.264,3.264,0,1,0,3.264-3.317A3.294,3.294,0,0,0,806.466,2353.18Zm1.464,0a1.8,1.8,0,1,1,1.8,1.828A1.814,1.814,0,0,1,807.93,2353.18Zm-14.272-4.812a1.685,1.685,0,0,1,0-3.369h21.684a1.685,1.685,0,0,1,0,3.369Z" transform="translate(-792 -2345)"/></svg>