<svg xmlns="http://www.w3.org/2000/svg" width="25" height="22" viewBox="0 0 25 22"><defs><style>.a{fill:#fff;}</style></defs><path class="a" d="M1194.66,2366a2.689,2.689,0,0,1-2.66-2.715v-13.753a.341.341,0,0,1,.337-.343h24.327a.34.34,0,0,1,.337.343v13.753a2.688,2.688,0,0,1-2.66,2.715Zm10.316-14.487-2.717,10.245a.748.748,0,0,0,.516.917.705.705,0,0,0,.192.026.735.735,0,0,0,.706-.552l2.718-10.246a.75.75,0,0,0-.516-.917.71.71,0,0,0-.193-.026A.737.737,0,0,0,1204.976,2351.513Zm-4.678,1.326-3.473,3.545a.847.847,0,0,0,0,1.124l3.473,3.545a.723.723,0,0,0,1.036,0,.758.758,0,0,0,0-1.057l-2.988-3.05,2.988-3.05a.757.757,0,0,0,0-1.057.721.721,0,0,0-1.036,0Zm7.232-.006a.757.757,0,0,0,0,1.056l2.988,3.05-2.988,3.05a.758.758,0,0,0,0,1.057.723.723,0,0,0,1.036,0l3.474-3.545a.85.85,0,0,0,0-1.124l-3.474-3.545a.72.72,0,0,0-1.036,0Zm-15.193-5.14a.341.341,0,0,1-.337-.344v-.635a2.689,2.689,0,0,1,2.66-2.715h15.284a.34.34,0,0,1,.337.344v2.043a.74.74,0,0,0,.769.747.756.756,0,0,0,.7-.768v-2.022a.337.337,0,1,1,.673,0v2.043a.74.74,0,0,0,.769.747.756.756,0,0,0,.7-.768v-2.022a.341.341,0,0,1,.337-.344h.12a2.688,2.688,0,0,1,2.66,2.715v.635a.34.34,0,0,1-.337.344Zm6.913-1.834-.071.011c-.023.005-.047.011-.069.018s-.045.015-.068.025a.53.53,0,0,0-.065.031.688.688,0,0,0-.061.037.522.522,0,0,0-.059.044.531.531,0,0,0-.053.049c-.017.018-.033.036-.049.055a.63.63,0,0,0-.042.058.647.647,0,0,0-.037.064.615.615,0,0,0-.031.066c-.009.022-.017.046-.024.068a.521.521,0,0,0-.017.072.469.469,0,0,0-.011.073.65.65,0,0,0,0,.073.684.684,0,0,0,0,.074.494.494,0,0,0,.011.072.478.478,0,0,0,.017.071c.007.023.015.047.024.069a.638.638,0,0,0,.031.066.56.56,0,0,0,.037.063.521.521,0,0,0,.042.058.586.586,0,0,0,.049.055c.016.017.035.034.053.05a.665.665,0,0,0,.059.043.521.521,0,0,0,.061.038c.021.012.042.021.065.031s.045.017.068.024.046.014.069.019l.071.011c.024,0,.048,0,.072,0s.049,0,.072,0l.071-.011.07-.019c.022-.007.045-.015.067-.024s.044-.02.066-.031a.631.631,0,0,0,.061-.038.65.65,0,0,0,.058-.043.717.717,0,0,0,.054-.05.562.562,0,0,0,.048-.055.668.668,0,0,0,.043-.058.72.72,0,0,0,.036-.063.5.5,0,0,0,.031-.066.654.654,0,0,0,.025-.069c.006-.023.013-.047.017-.071s.008-.049.011-.072a.682.682,0,0,0,0-.074.651.651,0,0,0,0-.073c0-.025-.006-.05-.011-.073s-.011-.048-.017-.072-.015-.046-.024-.068a.622.622,0,0,0-.031-.066c-.011-.022-.023-.043-.036-.064s-.028-.04-.042-.058-.032-.037-.049-.055a.657.657,0,0,0-.054-.049.512.512,0,0,0-.058-.044c-.02-.013-.041-.025-.061-.037a.717.717,0,0,0-.065-.031c-.022-.01-.045-.017-.068-.025s-.047-.013-.07-.018l-.071-.011c-.023,0-.048,0-.072,0S1199.273,2345.857,1199.249,2345.859Zm-2.1,0-.071.011c-.023.005-.047.011-.069.018a.7.7,0,0,0-.068.025.548.548,0,0,0-.065.031c-.022.012-.042.023-.062.037a.51.51,0,0,0-.057.044.518.518,0,0,0-.053.049c-.017.018-.033.036-.049.055s-.03.039-.043.058a.72.72,0,0,0-.036.063c-.012.022-.022.044-.031.067s-.017.046-.023.068a.722.722,0,0,0-.018.072c0,.023-.008.048-.011.073s0,.049,0,.073,0,.05,0,.074.006.049.011.072a.644.644,0,0,0,.018.071c.006.023.015.047.023.069s.02.044.031.066a.535.535,0,0,0,.036.063c.013.02.028.04.043.058a.588.588,0,0,0,.049.055.556.556,0,0,0,.053.05.648.648,0,0,0,.057.043c.02.013.041.026.062.038s.042.021.065.031a.7.7,0,0,0,.068.024c.022.007.046.014.069.019l.071.011c.024,0,.048,0,.072,0s.048,0,.072,0l.071-.011c.023-.005.047-.012.069-.019s.046-.015.068-.024.044-.02.065-.031.041-.024.062-.038a.633.633,0,0,0,.058-.043c.018-.015.036-.032.053-.05a.57.57,0,0,0,.049-.055.609.609,0,0,0,.042-.058c.014-.02.026-.042.038-.063s.021-.043.03-.066a.648.648,0,0,0,.024-.069c.007-.023.013-.047.018-.071s.008-.049.011-.072a.682.682,0,0,0,0-.074.651.651,0,0,0,0-.073c0-.025-.006-.05-.011-.073a.755.755,0,0,0-.042-.14c-.009-.022-.019-.044-.03-.067s-.024-.042-.038-.063a.609.609,0,0,0-.042-.058c-.015-.019-.031-.037-.048-.055s-.036-.033-.054-.049a.5.5,0,0,0-.058-.044c-.021-.013-.04-.025-.062-.037a.548.548,0,0,0-.065-.031c-.022-.01-.045-.017-.068-.025s-.046-.013-.069-.018l-.071-.011c-.024,0-.048,0-.072,0S1197.174,2345.857,1197.149,2345.859Zm-2.072,0a.713.713,0,0,0-.071.01c-.023.005-.047.011-.07.018s-.045.015-.068.025-.043.02-.065.031-.042.023-.061.037a.523.523,0,0,0-.058.044.678.678,0,0,0-.054.049.625.625,0,0,0-.048.055c-.015.019-.03.039-.043.058s-.026.042-.037.064-.022.043-.031.066-.017.046-.024.068-.013.048-.017.072a.64.64,0,0,0-.011.072.746.746,0,0,0,.011.22c0,.024.011.048.017.071s.015.047.024.069.02.044.031.066.024.043.037.063.028.04.043.058a.467.467,0,0,0,.048.055c.017.017.035.034.054.05a.669.669,0,0,0,.058.043c.02.013.041.026.061.038s.043.021.065.031l.068.024.07.019.071.011c.023,0,.048,0,.072,0s.048,0,.072,0l.071-.011c.023-.005.047-.012.069-.019l.068-.024c.022-.01.044-.02.065-.031s.042-.024.061-.038a.682.682,0,0,0,.058-.043.7.7,0,0,0,.053-.05.57.57,0,0,0,.049-.055.507.507,0,0,0,.042-.058.559.559,0,0,0,.037-.063.639.639,0,0,0,.031-.066c.009-.023.017-.046.024-.069a.829.829,0,0,0,.028-.143.606.606,0,0,0,0-.148.475.475,0,0,0-.011-.072.54.54,0,0,0-.017-.072c-.007-.022-.015-.046-.024-.068a.616.616,0,0,0-.031-.066.646.646,0,0,0-.037-.064.609.609,0,0,0-.042-.058c-.015-.019-.031-.037-.049-.055a.646.646,0,0,0-.053-.049.532.532,0,0,0-.058-.044c-.019-.013-.041-.025-.061-.037a.621.621,0,0,0-.065-.031c-.023-.01-.044-.017-.068-.025s-.046-.013-.069-.018a.715.715,0,0,0-.071-.01.647.647,0,0,0-.072,0A.637.637,0,0,0,1195.078,2345.86Z" transform="translate(-1192 -2344)"/></svg>