<svg xmlns="http://www.w3.org/2000/svg" width="13.688" height="12.975" viewBox="0 0 13.688 12.975"><defs><style>.a{fill:#a5b7d2;}</style></defs><path class="a" d="M370.878,20.018h2.984a8.854,8.854,0,0,1,1.519.025h.651l1,.128a3.839,3.839,0,0,1,2.17,1.336c.752,1.015.759,2.588.759,4.342V27.7a4.845,4.845,0,0,1-.027.924v.616c-.08.349-.054.731-.163,1.054a3.656,3.656,0,0,1-1.628,2.107c-1.025.6-2.68.563-4.34.564h-1.953a5.762,5.762,0,0,1-.977-.025h-.651c-.368-.075-.77-.051-1.112-.154a3.637,3.637,0,0,1-2.441-1.953,8.776,8.776,0,0,1-.353-1.593v-.616a4.9,4.9,0,0,1-.027-.924V25.9a11.5,11.5,0,0,1,.244-3.39,3.586,3.586,0,0,1,2.686-2.338l1-.128C370.423,20,370.73,20.1,370.878,20.018ZM370.8,21.2c-.146.084-.987.044-1.221.1a2.432,2.432,0,0,0-1.791,1.388,7.906,7.906,0,0,0-.244,2.773c0,2.23-.343,4.9,1.058,5.831,1.061.706,3.362.487,5.127.487,1.339,0,2.926.111,3.771-.385a2.375,2.375,0,0,0,.922-.975c.486-1.067.3-3.391.3-4.907,0-1.372.012-2.641-.6-3.417a2.863,2.863,0,0,0-1.79-.848l-.868-.026a8.983,8.983,0,0,0-1.573-.025Zm5.832,1.052c1.194-.03,1.267,1.339.3,1.568a.83.83,0,0,1-.949-1.027C376.113,22.445,376.34,22.439,376.629,22.251Zm-3.635.9a3.4,3.4,0,0,1,3.418,4.573,3.562,3.562,0,0,1-2.306,1.977c-.261.078-.56.073-.841.129a3.431,3.431,0,0,1-1.546-.309,3.271,3.271,0,0,1-1.872-4.264,3.561,3.561,0,0,1,1.98-1.876,5.551,5.551,0,0,1,.841-.2C372.781,23.152,372.917,23.2,372.994,23.152Zm-.027,1.182c-.158.091-.526.081-.705.154a2.342,2.342,0,0,0-1.3,1.311,2.114,2.114,0,0,0,1.194,2.619,1.922,1.922,0,0,0,1.139.231,2.4,2.4,0,0,0,1.953-1.336C375.956,25.742,374.564,24.322,372.967,24.334Z" transform="translate(-366.286 -19.997)"/></svg>