<svg xmlns="http://www.w3.org/2000/svg" width="12.903" height="11.46" viewBox="0 0 12.903 11.46"><defs><style>.a{fill:#a5b7d2;}</style></defs><path class="a" d="M341.178,32.205V27.575a1.409,1.409,0,0,0-1.411-1.24,1.5,1.5,0,0,0-1.495,1.178v4.692h-2.6l.042-7.65h2.52l-.021.963a2.544,2.544,0,0,1,2.506-1.26c1.979,0,2.873,1.079,3.041,3.1v4.85Zm-8.7-8.737a1.506,1.506,0,0,1-1.621-1.357,1.647,1.647,0,0,1,3.243,0A1.506,1.506,0,0,1,332.474,23.468Zm1.608,8.745h-3.2V24.575l3.2-.019Z" transform="translate(-330.853 -20.753)"/></svg>