<svg xmlns="http://www.w3.org/2000/svg" width="26.932" height="26.933" viewBox="0 0 26.932 26.933"><defs><style>.a{fill:#f9fafe;}</style></defs><path class="a" d="M609.477,770.9a8.293,8.293,0,0,1-1.1-.239q-.612-.173-.908-.277t-1.062-.392c-.509-.192-.823-.306-.937-.345a17.33,17.33,0,0,1-3.348-1.588,32.127,32.127,0,0,1-9.181-9.182,17.345,17.345,0,0,1-1.588-3.347q-.058-.173-.345-.938c-.191-.51-.322-.864-.392-1.061s-.163-.5-.277-.909a8.118,8.118,0,0,1-.239-1.1,7.327,7.327,0,0,1-.068-1,7.424,7.424,0,0,1,.976-3.558,5.128,5.128,0,0,1,2.028-2.333,7.615,7.615,0,0,1,1.31-.4,6.3,6.3,0,0,1,1.349-.191,1.059,1.059,0,0,1,.4.058q.344.113,1.013,1.453.211.363.574,1.032t.67,1.215q.306.545.593,1.023.057.077.335.478a5.364,5.364,0,0,1,.411.68,1.247,1.247,0,0,1,.133.545,1.59,1.59,0,0,1-.544.956,9.306,9.306,0,0,1-1.186,1.052,11.45,11.45,0,0,0-1.186,1.013,1.463,1.463,0,0,0-.545.88,1.293,1.293,0,0,0,.1.43,4.128,4.128,0,0,0,.162.392q.067.135.268.46c.134.217.207.337.22.364a18.957,18.957,0,0,0,7.824,7.823c.025.013.147.086.364.22s.37.223.459.268a4.165,4.165,0,0,0,.392.162,1.283,1.283,0,0,0,.43.1,1.454,1.454,0,0,0,.88-.545,11.448,11.448,0,0,0,1.013-1.185,9.311,9.311,0,0,1,1.052-1.186,1.58,1.58,0,0,1,.956-.544,1.246,1.246,0,0,1,.545.133,5.367,5.367,0,0,1,.679.411c.268.185.428.3.478.335q.479.286,1.024.593t1.214.67q.67.363,1.033.573,1.339.67,1.453,1.014a1.066,1.066,0,0,1,.058.4,6.306,6.306,0,0,1-.192,1.349,7.53,7.53,0,0,1-.4,1.31,5.132,5.132,0,0,1-2.334,2.029,7.079,7.079,0,0,1-4.562.908Z" transform="translate(-590.034 -744.034)"/></svg>