<svg xmlns="http://www.w3.org/2000/svg" width="12.008" height="14.994" viewBox="0 0 12.008 14.994"><defs><style>.a{fill:#00c3ff;}</style></defs><g transform="translate(-1295.011 -18.003)"><g transform="translate(1295 18)"><path d="M5.8.007A5.982,5.982,0,0,0,.12,7.121h0s.009.065.04.188A5.98,5.98,0,0,0,.564,8.5a17.332,17.332,0,0,0,5.116,6.382.523.523,0,0,0,.667,0,17.315,17.315,0,0,0,5.119-6.385,5.727,5.727,0,0,0,.4-1.187c.028-.12.04-.188.04-.188h0A5.984,5.984,0,0,0,5.8.007ZM6.014,8.96A2.905,2.905,0,1,1,8.93,6.054,2.91,2.91,0,0,1,6.014,8.96Z"/></g><path class="a" d="M1300.681,32.878a17.332,17.332,0,0,1-5.116-6.383,5.966,5.966,0,0,1-.4-1.186,1.9,1.9,0,0,1-.04-.188,6,6,0,1,1,11.791,0s-.013.067-.04.187a5.7,5.7,0,0,1-.4,1.187,17.317,17.317,0,0,1-5.119,6.385.527.527,0,0,1-.334.119A.517.517,0,0,1,1300.681,32.878Zm-2.583-8.824a2.916,2.916,0,1,0,2.916-2.905A2.91,2.91,0,0,0,1298.1,24.054Z"/></g></svg>