<svg xmlns="http://www.w3.org/2000/svg" width="19" height="25" viewBox="0 0 19 25"><defs><style>.a{fill:#fff;}</style></defs><path class="a" d="M797.354,2555a2.377,2.377,0,0,1-2.354-2.393v-15.962a2.377,2.377,0,0,1,2.354-2.393h10a2.377,2.377,0,0,1,2.354,2.393v15.962a2.377,2.377,0,0,1-2.354,2.393Zm5.887-3.937a.728.728,0,0,0,.722.734h2.71a.733.733,0,0,0,0-1.467h-2.71A.727.727,0,0,0,803.241,2551.063Zm-5.936-2.254a.728.728,0,0,0,.722.733h8.607a.733.733,0,0,0,0-1.467h-8.607A.728.728,0,0,0,797.3,2548.809Zm.039-2.318a.728.728,0,0,0,.722.734h8.608a.734.734,0,0,0,0-1.467h-8.608A.728.728,0,0,0,797.343,2546.491Zm2.018-5.591c0,.033,0,.066,0,.1l-1.028,1.205a1.061,1.061,0,1,0,1.1,1.061c0-.034,0-.066,0-.1l1.028-1.205a1.063,1.063,0,0,0,.178-.024l1,.677a1.149,1.149,0,0,0,2.261-.31,1.167,1.167,0,0,0-.007-.127l2.437-2.483h.023a1.062,1.062,0,1,0-1.045-1.062.231.231,0,0,0,0,.025l-2.438,2.482a1.118,1.118,0,0,0-.122-.006,1.13,1.13,0,0,0-.512.123l-.8-.541a1.043,1.043,0,0,0-2.073.186Zm11.782,10.911-.076-16.384a2.377,2.377,0,0,0-2.354-2.393h-10.02a.44.44,0,0,1-.437-.444v-.132a2.441,2.441,0,0,1,2.421-2.46h10.9a2.441,2.441,0,0,1,2.42,2.46v17.333a2.44,2.44,0,0,1-2.42,2.46A.44.44,0,0,1,811.143,2551.812Z" transform="translate(-795 -2530)"/></svg>