<svg xmlns="http://www.w3.org/2000/svg" width="22.999" height="25" viewBox="0 0 22.999 25"><defs><style>.a{fill:#fff;}</style></defs><path class="a" d="M1197.113,2552.529a2.441,2.441,0,0,1,4.779-.734h.816l.033-6.732a.233.233,0,0,1,.231-.232h.988a.233.233,0,0,1,.231.235l-.037,7.467c0,.012,0,.025,0,.038s0,.023,0,.035,0,.025-.005.038l-.005.035c0,.012-.006.024-.01.036s0,.022-.008.033-.009.024-.014.036l-.011.031-.017.035-.013.029c-.006.012-.014.021-.02.033l-.017.027-.022.03-.02.027-.024.027c-.008.008-.014.017-.022.024l-.026.024-.026.023-.027.021-.029.022-.029.018-.031.018c-.01.006-.022.011-.031.016l-.031.015-.036.013-.031.012-.043.011-.026.007-.056.008-.016,0a.667.667,0,0,1-.074,0h-1.538a2.441,2.441,0,0,1-4.779-.733Zm10.568.733h-1.528l-.037,0-.036,0-.037-.005-.035-.006-.036-.009-.033-.009-.035-.012-.031-.012-.033-.017-.03-.014a.362.362,0,0,1-.031-.02l-.029-.017c-.01-.006-.019-.014-.029-.021l-.026-.021a.337.337,0,0,1-.027-.024l-.025-.023-.023-.026-.023-.026c-.007-.009-.013-.018-.02-.028s-.015-.019-.022-.029l-.018-.029c-.005-.011-.013-.021-.018-.031s-.01-.021-.015-.031-.011-.022-.015-.032-.008-.022-.012-.033-.009-.023-.013-.034-.005-.024-.009-.036-.006-.022-.008-.034,0-.025-.006-.039,0-.022,0-.034a.277.277,0,0,1,0-.04c0-.012,0-.022,0-.033v0l.037-7.461a.232.232,0,0,1,.23-.232h.989a.232.232,0,0,1,.23.235l-.033,6.729h.794a2.472,2.472,0,1,1,0,1.466Zm2.692-5.484h-1.529l-.02,0-.037,0-.032-.005-.043-.009-.019,0a.733.733,0,0,1-.539-.708v-1.979a.232.232,0,0,1,.231-.234h.988a.232.232,0,0,1,.231.234v1.246h.769a2.472,2.472,0,1,1,0,1.467Zm-15.881-.733a2.441,2.441,0,0,1,4.779-.734h.757v-1.246a.232.232,0,0,1,.231-.234h.988a.232.232,0,0,1,.231.233v1.98a.683.683,0,0,1,0,.076.21.21,0,0,1,0,.024c0,.017,0,.033-.007.05s-.005.019-.007.028-.007.029-.012.043-.007.019-.011.029-.009.026-.014.039a.284.284,0,0,1-.014.029.33.33,0,0,1-.017.036c-.005.01-.012.019-.017.028l-.021.033a.262.262,0,0,1-.02.026.275.275,0,0,1-.023.031l-.021.025c-.009.009-.017.019-.026.027l-.024.023-.029.025-.027.021-.03.021-.029.018-.033.018-.03.015-.035.015-.031.012-.036.012-.034.009-.037.008-.035.005-.039,0-.036,0h-1.5a2.441,2.441,0,0,1-4.779-.733Zm16.924-3.251a.7.7,0,0,1-.1.007h-13.16a.848.848,0,0,1-.105-.008,5.415,5.415,0,0,1,.3-10.817,5.3,5.3,0,0,1,1.012.1,6.776,6.776,0,0,1,9.949-1.553,6.944,6.944,0,0,1,2.2,3.205,4.539,4.539,0,0,1-.007,9.076A.7.7,0,0,1,1211.415,2543.793Z" transform="translate(-1193 -2530)"/></svg>