<svg xmlns="http://www.w3.org/2000/svg" width="25" height="25" viewBox="0 0 25 25"><defs><style>.a{fill:#fff;}</style></defs><path class="a" d="M1192.68,2180.321a2.321,2.321,0,0,1,0-3.284l4.853-4.853a2.322,2.322,0,1,1,3.284,3.284l-4.853,4.853a2.326,2.326,0,0,1-3.284,0Zm9.173-8.742a2.344,2.344,0,0,0-.425-.434.38.38,0,0,1-.04-.569l1.769-1.77a7.836,7.836,0,1,1,1.037,1.036l-1.775,1.775a.378.378,0,0,1-.268.112A.37.37,0,0,1,1201.853,2171.579Zm1.859-7.758a5.468,5.468,0,1,0,5.468-5.469A5.474,5.474,0,0,0,1203.711,2163.822Zm1.464,0a4,4,0,1,1,4,4A4.008,4.008,0,0,1,1205.176,2163.822Zm.884.125a.732.732,0,1,0,1.464,0,1.723,1.723,0,0,1,1.721-1.721,1.705,1.705,0,0,1,.961.293.733.733,0,1,0,.821-1.214,3.186,3.186,0,0,0-4.967,2.642Z" transform="translate(-1192 -2156)"/></svg>