<svg xmlns="http://www.w3.org/2000/svg" width="81" height="221" viewBox="0 0 81 221">
  <g id="Векторный_смарт-объект" data-name="Векторный смарт-объект" transform="translate(-1083.092 -460.315)">
    <g id="Group_9" data-name="Group 9">
      <g id="Group_8" data-name="Group 8">
        <path id="Path_31" data-name="Path 31" d="M1150.322,653.183s.916,12.568,1.788,16.83c0,0-.479,6.278-8,6.278s-3.22-5.055-3.22-5.055,3.549-4.45,2.077-18.053Z" fill="#eb9f8a"/>
        <path id="Path_32" data-name="Path 32" d="M1123.814,678.9a2.135,2.135,0,0,0,.014.237,1.479,1.479,0,0,0,.03.19,1.772,1.772,0,0,0,.05.217,1.035,1.035,0,0,0,.046.155,2.6,2.6,0,0,0,.1.262,1.529,1.529,0,0,0,.085.2,4.776,4.776,0,0,0,.261.514,1.29,1.29,0,0,0,1.124.648h27.092l-.09-2.011-.05-1.182c.657-2.043.264-4.977-.362-8.11-7.9,6.207-10.627.644-10.731.411l-.005,0a.617.617,0,0,1-.039.085,1.962,1.962,0,0,1-.156.276,7.293,7.293,0,0,1-2.278,1.871c-.071.046-.146.087-.22.132-.467.267-.98.538-1.521.8-.08.036-.155.071-.236.11-.471.222-.962.443-1.465.655-.08.039-.16.069-.245.105a46.305,46.305,0,0,1-8.59,2.686c-.3.055-.572.1-.817.126C1124.27,677.448,1123.814,678.136,1123.814,678.9Z" fill="#00468d"/>
        <path id="Path_33" data-name="Path 33" d="M1127.059,681.315h25.553l-.09-2.011-.05-1.182c-.272-.2-.543-.413-.794-.63a10.472,10.472,0,0,0-3.618-2.319c-2.594-.824-5.418-.094-7.957.886s-5.031,2.237-7.742,2.5c-1,.1-2.006.055-3,.192a2.546,2.546,0,0,0-2.052,1.141,2.793,2.793,0,0,0-.216.967C1127.08,681.015,1127.064,681.164,1127.059,681.315Z" fill="#2e81c5"/>
        <path id="Path_34" data-name="Path 34" d="M1123.814,678.9a2.135,2.135,0,0,0,.014.237,1.479,1.479,0,0,0,.03.19,1.772,1.772,0,0,0,.05.217,1.035,1.035,0,0,0,.046.155,2.6,2.6,0,0,0,.1.262,1.529,1.529,0,0,0,.085.2,4.776,4.776,0,0,0,.261.514,1.29,1.29,0,0,0,1.124.648h27.092l-.09-2.011a11.25,11.25,0,0,0-1.75-.151c-2.278-.066-4.582.116-6.854.187q-4.072.126-8.148.251c-2.979.091-6.265.08-8.528-1.867-.211-.18-.417-.383-.618-.578-.3.055-.572.1-.817.126C1124.27,677.448,1123.814,678.136,1123.814,678.9Z" fill="#c3cee2"/>
        <g id="Group_5" data-name="Group 5">
          <path id="Path_35" data-name="Path 35" d="M1138.68,672.784a3.745,3.745,0,0,0,.987,1.237,1.909,1.909,0,0,0,.948.4h.016a.125.125,0,0,0,.126-.11.127.127,0,0,0-.112-.141,1.786,1.786,0,0,1-.957-.457,3.861,3.861,0,0,1-.788-1.063C1138.829,672.7,1138.754,672.74,1138.68,672.784Z" fill="#fff"/>
        </g>
        <g id="Group_6" data-name="Group 6">
          <path id="Path_36" data-name="Path 36" d="M1136.922,673.7a2.518,2.518,0,0,0,1.7,1.239h.02a.127.127,0,0,0,.014-.253,2.242,2.242,0,0,1-1.5-1.1C1137.078,673.624,1137,673.66,1136.922,673.7Z" fill="#fff"/>
        </g>
        <g id="Group_7" data-name="Group 7">
          <path id="Path_37" data-name="Path 37" d="M1135.213,674.459a2.273,2.273,0,0,0,1.44.881l.014.005a.127.127,0,0,0,.016-.253,1.951,1.951,0,0,1-1.225-.739C1135.378,674.393,1135.3,674.423,1135.213,674.459Z" fill="#fff"/>
        </g>
      </g>
      <path id="Path_38" data-name="Path 38" d="M1128.55,569.508s5.883,43.049,8.935,52.444,4.426,43.7,4.426,43.7H1152.3s5.448-29.281,0-45.233c0,0,8.329-46.981,2.421-54.41S1130.293,558.8,1128.55,569.508Z" fill="#acbee2"/>
    </g>
    <g id="Group_14" data-name="Group 14">
      <g id="Group_13" data-name="Group 13">
        <path id="Path_39" data-name="Path 39" d="M1153.728,653.183s.914,12.568,1.786,16.83c0,0-.479,6.278-8,6.278s-3.222-5.055-3.222-5.055,3.549-4.45,2.077-18.053Z" fill="#feac95"/>
        <path id="Path_40" data-name="Path 40" d="M1127.219,678.9a1.793,1.793,0,0,0,.016.237,1.189,1.189,0,0,0,.03.19,1.457,1.457,0,0,0,.05.217,1.025,1.025,0,0,0,.044.155,2.54,2.54,0,0,0,.1.262,1.544,1.544,0,0,0,.085.2,4.777,4.777,0,0,0,.261.514,1.29,1.29,0,0,0,1.124.648h27.092l-.091-2.011-.05-1.182c.657-2.043.266-4.977-.36-8.11-7.9,6.207-10.627.644-10.731.411l-.005,0a.617.617,0,0,1-.041.085,1.957,1.957,0,0,1-.154.276,7.282,7.282,0,0,1-2.279,1.871c-.069.046-.146.087-.22.132-.467.267-.978.538-1.52.8-.08.036-.156.071-.236.11-.472.222-.964.443-1.464.655-.08.039-.161.069-.247.105a46.284,46.284,0,0,1-8.589,2.686c-.3.055-.572.1-.818.126C1127.675,677.448,1127.219,678.136,1127.219,678.9Z" fill="#0054aa"/>
        <path id="Path_41" data-name="Path 41" d="M1130.466,681.315h25.551l-.091-2.011-.05-1.182c-.27-.2-.541-.413-.792-.63a10.5,10.5,0,0,0-3.618-2.319c-2.594-.824-5.418-.094-7.957.886s-5.033,2.237-7.742,2.5c-1,.1-2.006.055-3.005.192a2.548,2.548,0,0,0-2.052,1.141,2.789,2.789,0,0,0-.215.967C1130.485,681.015,1130.471,681.164,1130.466,681.315Z" fill="#3494e2"/>
        <path id="Path_42" data-name="Path 42" d="M1127.219,678.9a1.793,1.793,0,0,0,.016.237,1.189,1.189,0,0,0,.03.19,1.457,1.457,0,0,0,.05.217,1.025,1.025,0,0,0,.044.155,2.54,2.54,0,0,0,.1.262,1.544,1.544,0,0,0,.085.2,4.777,4.777,0,0,0,.261.514,1.29,1.29,0,0,0,1.124.648h27.092l-.091-2.011a11.213,11.213,0,0,0-1.75-.151c-2.278-.066-4.58.116-6.853.187q-4.072.126-8.148.251c-2.981.091-6.267.08-8.528-1.867-.211-.18-.417-.383-.618-.578-.3.055-.572.1-.818.126C1127.675,677.448,1127.219,678.136,1127.219,678.9Z" fill="#dce9ff"/>
        <g id="Group_10" data-name="Group 10">
          <path id="Path_43" data-name="Path 43" d="M1142.084,672.784a3.777,3.777,0,0,0,.989,1.237,1.9,1.9,0,0,0,.948.4h.014a.126.126,0,0,0,.016-.251,1.8,1.8,0,0,1-.959-.457,3.934,3.934,0,0,1-.788-1.063C1142.235,672.7,1142.159,672.74,1142.084,672.784Z" fill="#fff"/>
        </g>
        <g id="Group_11" data-name="Group 11">
          <path id="Path_44" data-name="Path 44" d="M1140.329,673.7a2.511,2.511,0,0,0,1.7,1.239h.02a.126.126,0,0,0,.121-.112.125.125,0,0,0-.1-.141,2.235,2.235,0,0,1-1.5-1.1C1140.485,673.624,1140.409,673.66,1140.329,673.7Z" fill="#fff"/>
        </g>
        <g id="Group_12" data-name="Group 12">
          <path id="Path_45" data-name="Path 45" d="M1138.617,674.459a2.274,2.274,0,0,0,1.44.881l.016.005a.127.127,0,0,0,.014-.253,1.952,1.952,0,0,1-1.223-.739C1138.784,674.393,1138.7,674.423,1138.617,674.459Z" fill="#fff"/>
        </g>
      </g>
      <path id="Path_46" data-name="Path 46" d="M1131.955,569.508s5.885,43.049,8.937,52.444,4.426,43.7,4.426,43.7h10.394s5.448-29.281,0-45.233c0,0,8.329-46.981,2.422-54.41S1133.7,558.8,1131.955,569.508Z" fill="#d1defe"/>
    </g>
    <g id="Group_15" data-name="Group 15">
      <path id="Path_47" data-name="Path 47" d="M1152.2,665.73l.2-.15c-3.149-4.276-6.148-93.837-6.178-94.741l-.25.009c.007.226.762,22.88,1.9,45.774C1149.4,647.38,1150.858,663.9,1152.2,665.73Z" fill="#0054aa"/>
    </g>
    <path id="Path_48" data-name="Path 48" d="M1159.958,572.178s-17.791,8.072-30.692,2.439l-.715-5.109,30.7-1.871S1159.858,571.142,1159.958,572.178Z" fill="#8ba2c6" opacity="0.2"/>
    <path id="Path_49" data-name="Path 49" d="M1164.09,567.979a39.2,39.2,0,0,1-20.737,6.614,39.8,39.8,0,0,1-8.816-.685,42.979,42.979,0,0,1-6.51-1.775s-.249-6.322,0-15.185c.124-4.56.378-9.792.875-15.187q.2-2.195.454-4.4c.167-1.483.353-2.958.564-4.436,2.368-16.611,7.444-32.1,18.159-31.591,0,0,11.337-.436,14.381,9.617a44.8,44.8,0,0,1,.875,20.1S1161.14,557.27,1164.09,567.979Z" fill="#2e4cac"/>
    <g id="Group_17" data-name="Group 17">
      <path id="Path_50" data-name="Path 50" d="M1137.593,485.018a25.787,25.787,0,0,1-13.875-6.73c-2.492-2.357-4.566-5.367-4.979-8.777s1.186-7.2,4.323-8.583c3.579-1.577,7.621.265,11.381,1.342a28.693,28.693,0,0,0,9.052,1.082c2.526-.1,5.036-.539,7.566-.509a11.15,11.15,0,0,1,7.1,2.216c2.359,1.983,3.288,5.2,3.645,8.263a22.549,22.549,0,0,1-2.389,13.8c-2.365,4.117-6.7,7.239-11.433,7.408-3.153.112-6.2-1.031-9.135-2.193a19.085,19.085,0,0,1-5.505-2.937,6.71,6.71,0,0,1-2.576-5.466" fill="#203983"/>
      <path id="Path_51" data-name="Path 51" d="M1152.424,493.805s1.642,12.784.424,15.251c-.479.974-6.982,6.915-11.5,1.679a4.544,4.544,0,0,1-1.019-3.574c.27-2,.742-5.452,1.252-8.905Z" fill="#feac95"/>
      <path id="Path_52" data-name="Path 52" d="M1152.413,493.805s.893,9.046-11.756,10.886l.591-4.47S1148.211,499.5,1152.413,493.805Z" fill="#f29e8b"/>
      <path id="Path_53" data-name="Path 53" d="M1143.467,467.172a7.361,7.361,0,0,0-5.807,1.7c-2.9,2.469-7.335,7.252-7.034,13.17.446,8.74,1.99,22.221,11.548,20.539s15.372-17.721,13.531-24.154C1154.124,472.9,1149.984,468.092,1143.467,467.172Z" fill="#feac95"/>
      <path id="Path_54" data-name="Path 54" d="M1149.457,477.323s-10.843,2.919-17.527-1.339a11.933,11.933,0,0,0-.991,2.757S1145.882,482.536,1149.457,477.323Z" fill="#f29e8b"/>
      <path id="Path_55" data-name="Path 55" d="M1131.3,475.5a17.226,17.226,0,0,0,18.157,1.821s-2.368,12.973,7.007,13.567c0,0,6.581-16.687-5.2-22.47S1131.971,468.962,1131.3,475.5Z" fill="#203983"/>
      <g id="Group_16" data-name="Group 16">
        <path id="Path_56" data-name="Path 56" d="M1154,486.83a2.511,2.511,0,1,1-1.722-3.113A2.511,2.511,0,0,1,1154,486.83Z" fill="#feac95"/>
        <path id="Path_57" data-name="Path 57" d="M1152.8,486.483a1.255,1.255,0,1,1-.861-1.556A1.254,1.254,0,0,1,1152.8,486.483Z" fill="#ed9783"/>
      </g>
    </g>
    <path id="Path_58" data-name="Path 58" d="M1153.778,532.264l-11.25,15.018-1.628-1.228c-2.691,3.158-5.237,5.874-6.8,7.561-2.553,2.761-4.591,3.439-6.07,3.334.124-4.56.378-9.792.875-15.187.454-1.047.989-2.255,1.578-3.556l-1.124-.847c.167-1.483.353-2.958.564-4.436l8.921-11.9a9.347,9.347,0,1,1,14.935,11.244Z" fill="#1b418c"/>
    <g id="Group_20" data-name="Group 20">
      <g id="Group_19" data-name="Group 19">
        <path id="Path_59" data-name="Path 59" d="M1150.387,518.955s-6.838-3.724-11.555,2.748-10.612,20.423-10.612,20.423L1107,527.23l-.529,7.86,19.395,16.967s3.066,4.493,8.962-1.655S1160.291,524.392,1150.387,518.955Z" fill="#feac95"/>
        <g id="Group_18" data-name="Group 18">
          <path id="Path_60" data-name="Path 60" d="M1083.718,518.818c.529-.8,2.856,1.1,4.229,1.844s1.727.716,1.658.481a30.455,30.455,0,0,0-3.833-3.1c-1.213-.831-3.167-2.1-2.569-2.932s2.471.591,4.142,1.67,2.984,2.481,3.288,2.113-5.326-5.046-5.722-5.42-1.759-1.506-1.221-2.211,1.83.192,2.494.671,2.455,1.892,3.877,3.163,1.873,1.689,2.12,1.5-2.6-3.581-3.677-4.783-1.766-2.577-.836-3.008,2.769,2.045,3.915,3.387a39.61,39.61,0,0,0,4.1,4.389c.987.732,1.731,1.593,2.034,1.02h0c.076-.126.142-.223.185-.283a4.372,4.372,0,0,0,.06-2.423,3.571,3.571,0,0,1,.8-2.618c.5-.6,1.166-.669,1.1,1.225a12.887,12.887,0,0,0,1.386,5.8c.747,1.287,1.337,2.042.74,3.539-.2.493,9.061,7.421,10.454,8.38s-3.441,6.132-4.5,5.251-9.5-9.4-10.371-9.2-1.589.052-3.742-1.029c-1.078-.541-3.064-1.718-4.71-2.72,0,0-3.109-1.874-4.225-2.714S1083.189,519.619,1083.718,518.818Z" fill="#feac95"/>
        </g>
      </g>
      <path id="Path_61" data-name="Path 61" d="M1128.63,532.7l14.734,11.508,11.509-14.817a9.38,9.38,0,0,0-1.63-13.14h0a9.321,9.321,0,0,0-13.1,1.634Z" fill="#2e4cac"/>
    </g>
  </g>
</svg>
