<svg xmlns="http://www.w3.org/2000/svg" width="69.823" height="42.316" viewBox="0 0 69.823 42.316">
  <g id="Group_2" data-name="Group 2" transform="translate(-916.857 -410.342)">
    <path id="Path_21" data-name="Path 21" d="M983.526,442.145c2.7,2.142.781,6.811-2.307,8.31-3.434,1.666-9.689,2.557-20.667-1.422l-6.469-2.67s-18.84-11.562-23.687-19.1l3.334-3.844s18.98,12.633,26.439,14.828C960.168,438.248,976.547,436.609,983.526,442.145Z" fill="#eb9f8a"/>
    <g id="Group_1" data-name="Group 1">
      <path id="Path_22" data-name="Path 22" d="M917.391,419.1c.452-.7,2.439.957,3.613,1.6s1.475.623,1.414.418a26.265,26.265,0,0,0-3.273-2.695c-1.037-.722-2.7-1.826-2.194-2.549s2.109.514,3.535,1.451,2.55,2.159,2.809,1.838-4.548-4.389-4.888-4.714-1.5-1.31-1.043-1.923,1.563.167,2.13.584,2.1,1.645,3.313,2.75,1.6,1.47,1.81,1.3-2.224-3.116-3.141-4.161-1.51-2.241-.716-2.616,2.367,1.778,3.344,2.945a34.491,34.491,0,0,0,3.5,3.819c.841.635,1.478,1.384,1.737.886h0c.065-.112.121-.2.158-.246a3.881,3.881,0,0,0,.05-2.109,3.151,3.151,0,0,1,.684-2.276c.431-.523,1-.584.941,1.065a11.372,11.372,0,0,0,1.184,5.048c.64,1.118,1.142,1.775.634,3.077-.167.429,7.74,6.455,8.93,7.288s-2.937,5.336-3.843,4.57-8.111-8.175-8.857-8-1.357.046-3.2-.9c-.919-.469-2.617-1.493-4.022-2.363,0,0-2.656-1.632-3.61-2.362S916.94,419.792,917.391,419.1Z" fill="#eb9f8a"/>
    </g>
    <path id="Rectangle_1" data-name="Rectangle 1" d="M0,0H13.976a0,0,0,0,1,0,0V17.8A6.686,6.686,0,0,1,7.29,24.483h-.6A6.686,6.686,0,0,1,0,17.8V0A0,0,0,0,1,0,0Z" transform="matrix(0.048, -0.999, 0.999, 0.048, 961.554, 451.483)" fill="#234599"/>
  </g>
</svg>
