<svg id="visual" viewBox="0 0 900 400" width="900" height="400" xmlns="http://www.w3.org/2000/svg" xmlns:xlink="http://www.w3.org/1999/xlink" version="1.1"><path d="M0 138L18.8 141.3C37.7 144.7 75.3 151.3 112.8 147.3C150.3 143.3 187.7 128.7 225.2 117.3C262.7 106 300.3 98 337.8 106C375.3 114 412.7 138 450.2 142C487.7 146 525.3 130 562.8 123.8C600.3 117.7 637.7 121.3 675.2 116C712.7 110.7 750.3 96.3 787.8 94.8C825.3 93.3 862.7 104.7 881.3 110.3L900 116L900 401L881.3 401C862.7 401 825.3 401 787.8 401C750.3 401 712.7 401 675.2 401C637.7 401 600.3 401 562.8 401C525.3 401 487.7 401 450.2 401C412.7 401 375.3 401 337.8 401C300.3 401 262.7 401 225.2 401C187.7 401 150.3 401 112.8 401C75.3 401 37.7 401 18.8 401L0 401Z" fill="#ff8f82"></path><path d="M0 243L18.8 230C37.7 217 75.3 191 112.8 178C150.3 165 187.7 165 225.2 170.8C262.7 176.7 300.3 188.3 337.8 186.7C375.3 185 412.7 170 450.2 170.8C487.7 171.7 525.3 188.3 562.8 187.8C600.3 187.3 637.7 169.7 675.2 169C712.7 168.3 750.3 184.7 787.8 195.8C825.3 207 862.7 213 881.3 216L900 219L900 401L881.3 401C862.7 401 825.3 401 787.8 401C750.3 401 712.7 401 675.2 401C637.7 401 600.3 401 562.8 401C525.3 401 487.7 401 450.2 401C412.7 401 375.3 401 337.8 401C300.3 401 262.7 401 225.2 401C187.7 401 150.3 401 112.8 401C75.3 401 37.7 401 18.8 401L0 401Z" fill="#ff6b5c"></path><path d="M0 306L18.8 291.7C37.7 277.3 75.3 248.7 112.8 237C150.3 225.3 187.7 230.7 225.2 229.3C262.7 228 300.3 220 337.8 223.5C375.3 227 412.7 242 450.2 253.2C487.7 264.3 525.3 271.7 562.8 266.8C600.3 262 637.7 245 675.2 240.5C712.7 236 750.3 244 787.8 248.7C825.3 253.3 862.7 254.7 881.3 255.3L900 256L900 401L881.3 401C862.7 401 825.3 401 787.8 401C750.3 401 712.7 401 675.2 401C637.7 401 600.3 401 562.8 401C525.3 401 487.7 401 450.2 401C412.7 401 375.3 401 337.8 401C300.3 401 262.7 401 225.2 401C187.7 401 150.3 401 112.8 401C75.3 401 37.7 401 18.8 401L0 401Z" fill="#ea4d41"></path><path d="M0 339L18.8 332.5C37.7 326 75.3 313 112.8 309.8C150.3 306.7 187.7 313.3 225.2 322C262.7 330.7 300.3 341.3 337.8 347.3C375.3 353.3 412.7 354.7 450.2 349.3C487.7 344 525.3 332 562.8 331.3C600.3 330.7 637.7 341.3 675.2 339.2C712.7 337 750.3 322 787.8 310.2C825.3 298.3 862.7 289.7 881.3 285.3L900 281L900 401L881.3 401C862.7 401 825.3 401 787.8 401C750.3 401 712.7 401 675.2 401C637.7 401 600.3 401 562.8 401C525.3 401 487.7 401 450.2 401C412.7 401 375.3 401 337.8 401C300.3 401 262.7 401 225.2 401C187.7 401 150.3 401 112.8 401C75.3 401 37.7 401 18.8 401L0 401Z" fill="#c13a31"></path></svg>