<svg xmlns="http://www.w3.org/2000/svg" xmlns:xlink="http://www.w3.org/1999/xlink" width="351.979" height="122.49" viewBox="0 0 351.979 122.49">
  <defs>
    <linearGradient id="linear-gradient" x1="0.5" y1="1" x2="0.5" gradientUnits="objectBoundingBox">
      <stop offset="0" stop-color="#0160e7" stop-opacity="0"/>
      <stop offset="0.118" stop-color="#0160e7" stop-opacity="0.02"/>
      <stop offset="0.248" stop-color="#0160e7" stop-opacity="0.078"/>
      <stop offset="0.386" stop-color="#0160e7" stop-opacity="0.173"/>
      <stop offset="0.527" stop-color="#0160e7" stop-opacity="0.31"/>
      <stop offset="0.673" stop-color="#0160e7" stop-opacity="0.482"/>
      <stop offset="0.821" stop-color="#0160e7" stop-opacity="0.694"/>
      <stop offset="0.968" stop-color="#0160e7" stop-opacity="0.941"/>
      <stop offset="1" stop-color="#0160e7"/>
    </linearGradient>
  </defs>
  <path id="Path_27" data-name="Path 27" d="M97.691,119.743c27.913,0,30.3,51.606,59.23,51.606s41.87-20.643,60.592-20.643,32.679,20.643,56.167,20.643c34.381,0,32.339-70.885,60.593-70.885,22.807,0,28.594,29.6,53.443,29.6s38.125-20.642,61.954-20.642V222.953H97.691Z" transform="translate(-97.691 -100.464)" opacity="0.8" fill="url(#linear-gradient)"/>
  <path id="Path_28" data-name="Path 28" d="M97.691,119.743c27.913,0,30.3,51.606,59.23,51.606s41.87-20.643,60.592-20.643,32.679,20.643,56.167,20.643c34.381,0,32.339-70.885,60.593-70.885,22.807,0,28.594,29.6,53.443,29.6s38.125-20.642,61.954-20.642" transform="translate(-97.181 -99.953)" fill="none" stroke="#0160e7" stroke-linecap="round" stroke-miterlimit="10" stroke-width="1.021"/>
</svg>

