<svg xmlns="http://www.w3.org/2000/svg" width="90" height="224" viewBox="0 0 90 224"><defs><style>.a{fill:#ffc4b6;}.b{fill:#ef5e43;}.c{fill:#e2412b;}.d{fill:#dce9ff;}.e{fill:#343754;}.f{fill:#fff;}.g{fill:#46486a;}.h{fill:#3d28e0;}.i{fill:#203983;}.j{fill:#f2f0e2;opacity:0.5;}.k{fill:#feac95;}.l{fill:#f29e8b;}.m{fill:#fffef3;}</style></defs><g transform="translate(-605.355 -447.779)"><path class="a" d="M616.331,635.906s-4.794,12.335-6.989,16.345c0,0-1.444,6.447,6.191,8.745s4.826-4.089,4.826-4.089-2.235-5.552,3.442-18.753Z"/><path class="b" d="M635.345,669.812a1.838,1.838,0,0,1-.088.233,1.244,1.244,0,0,1-.09.183,1.616,1.616,0,0,1-.117.2,1.157,1.157,0,0,1-.1.142,2.64,2.64,0,0,1-.176.233,1.842,1.842,0,0,1-.147.171,4.956,4.956,0,0,1-.423.435,1.376,1.376,0,0,1-1.341.307l-27.512-8.278.71-1.99.414-1.171c-.039-2.252,1.261-5.075,2.86-8.029,6.112,8.644,10.594,3.893,10.771,3.693l.007,0a.929.929,0,0,0,.014.1,1.878,1.878,0,0,0,.074.325,7.626,7.626,0,0,0,1.738,2.575c.057.066.12.13.183.2.393.409.829.839,1.3,1.271.072.06.136.119.206.185.411.366.841.737,1.286,1.1.07.064.142.119.217.181a49.423,49.423,0,0,0,7.9,5.32q.433.219.793.375C635.327,668.218,635.578,669.05,635.345,669.812Z"/><path class="c" d="M631.3,671.25l-25.949-7.808.71-1.99.414-1.171c.337-.121.678-.249,1-.389a11.18,11.18,0,0,1,4.387-1.223c2.887-.036,5.533,1.56,7.808,3.32s4.422,3.783,7.091,4.88c.985.4,2.021.668,2.993,1.109a2.7,2.7,0,0,1,1.732,1.773,2.879,2.879,0,0,1-.077,1.036C631.378,670.941,631.345,671.1,631.3,671.25Z"/><path class="d" d="M635.345,669.812a1.838,1.838,0,0,1-.088.233,1.244,1.244,0,0,1-.09.183,1.616,1.616,0,0,1-.117.2,1.157,1.157,0,0,1-.1.142,2.64,2.64,0,0,1-.176.233,1.842,1.842,0,0,1-.147.171,4.956,4.956,0,0,1-.423.435,1.376,1.376,0,0,1-1.341.307l-27.512-8.278.71-1.99a12.125,12.125,0,0,1,1.826.382c2.333.631,4.614,1.516,6.9,2.282q4.1,1.373,8.2,2.742c3,1,6.34,2,9.236.732.269-.117.54-.256.8-.391q.433.219.793.375C635.327,668.218,635.578,669.05,635.345,669.812Z"/><path class="e" d="M625.994,541.766s-1.964,17.028,4.31,21.982l-6.375,42.022-12.76,39.138,10.656,3.243,15.348-36.689,8.777-68.06S633.944,528.536,625.994,541.766Z"/><path class="a" d="M630.863,642.271s-.972,13.182-1.9,17.651c0,0,.508,6.586,8.488,6.586s3.418-5.3,3.418-5.3-3.766-4.667-2.2-18.935Z"/><path class="b" d="M659,669.242a1.907,1.907,0,0,1-.016.247,1.255,1.255,0,0,1-.032.2,1.56,1.56,0,0,1-.054.227.942.942,0,0,1-.048.163,2.4,2.4,0,0,1-.1.274,1.887,1.887,0,0,1-.09.206,5.049,5.049,0,0,1-.278.538,1.374,1.374,0,0,1-1.193.681H628.433l.1-2.111.052-1.239c-.7-2.143-.282-5.219.384-8.505,8.381,6.509,11.279.673,11.39.432l.005-.005a.575.575,0,0,0,.043.089,1.848,1.848,0,0,0,.165.291,7.7,7.7,0,0,0,2.417,1.962c.074.048.154.091.233.137.495.281,1.038.565,1.614.846.084.036.165.073.249.115.5.233,1.022.464,1.555.686.086.041.17.073.262.11a49.674,49.674,0,0,0,9.116,2.818c.319.057.606.1.868.131C658.512,667.722,659,668.446,659,669.242Z"/><path class="c" d="M655.553,671.779h-27.12l.1-2.111.052-1.239c.289-.212.576-.434.841-.661a11.1,11.1,0,0,1,3.84-2.431c2.753-.865,5.751-.1,8.445.928s5.341,2.349,8.216,2.628c1.06.1,2.131.059,3.19.2a2.7,2.7,0,0,1,2.177,1.2,2.9,2.9,0,0,1,.23,1.013C655.531,671.463,655.547,671.621,655.553,671.779Z"/><path class="d" d="M659,669.242a1.907,1.907,0,0,1-.016.247,1.255,1.255,0,0,1-.032.2,1.56,1.56,0,0,1-.054.227.942.942,0,0,1-.048.163,2.4,2.4,0,0,1-.1.274,1.887,1.887,0,0,1-.09.206,5.049,5.049,0,0,1-.278.538,1.374,1.374,0,0,1-1.193.681H628.433l.1-2.111a12.231,12.231,0,0,1,1.858-.158c2.417-.068,4.862.123,7.274.2q4.32.136,8.646.265c3.164.094,6.652.084,9.053-1.958.222-.19.441-.4.655-.606.319.057.606.1.868.131C658.512,667.722,659,668.446,659,669.242Z"/><path class="f" d="M643.219,662.83a3.926,3.926,0,0,1-1.049,1.3,2.023,2.023,0,0,1-1.006.421h-.016a.132.132,0,0,1-.016-.263,1.925,1.925,0,0,0,1.017-.48,4.087,4.087,0,0,0,.838-1.114C643.06,662.741,643.14,662.784,643.219,662.83Z"/><path class="f" d="M645.083,663.791a2.661,2.661,0,0,1-1.8,1.3h-.022a.132.132,0,0,1-.016-.263,2.386,2.386,0,0,0,1.593-1.15C644.918,663.711,645,663.749,645.083,663.791Z"/><path class="f" d="M646.9,664.588a2.423,2.423,0,0,1-1.528.924l-.016.005a.132.132,0,0,1-.133-.117.131.131,0,0,1,.117-.148,2.072,2.072,0,0,0,1.3-.775C646.724,664.518,646.808,664.55,646.9,664.588Z"/><path class="g" d="M630.02,546.605s-3.3,12.475,1.254,21.854c4.412,9.084-1.958,83.664-1.958,83.664h9.616L655.7,546.605S637.572,537.924,630.02,546.605Z"/><path class="h" d="M634.261,652.161l-.26-.075c5.628-19.416,8.121-103.174,8.144-104.017l.271.007C642.391,548.921,639.9,632.712,634.261,652.161Z"/><path class="i" d="M652.457,453.226c1.931,2.346,2.052,5.61,2.493,8.6a33.755,33.755,0,0,0,3.056,9.864c1,2.054,2.24,4.094,2.374,6.373.12,2.036-.667,4.021-.773,6.06-.117,2.243.588,4.437.936,6.657a3.854,3.854,0,0,1-.106,2.127c-.572,1.326-2.254,1.717-3.7,1.88a61.113,61.113,0,0,1-7.755.384,2.246,2.246,0,0,1-1.4-.336,3.007,3.007,0,0,1-.726-1.622c-1.049-3.583-5.929-4.53-7.954-7.675-1.1-1.71-1.218-3.862-2.064-5.708-1.04-2.264-3.083-3.89-4.69-5.8a18,18,0,0,1-4-14.028,5.078,5.078,0,0,1,.561-1.859,9.125,9.125,0,0,1,1.4-1.571c1.377-1.432,2.22-3.3,3.589-4.741,2.7-2.84,5.733-2.788,9.175-2C646.365,450.632,649.919,450.145,652.457,453.226Z"/><path class="f" d="M655.965,552.715a27.67,27.67,0,0,0-11.8-3.142,35.746,35.746,0,0,0-6.18.133,21.241,21.241,0,0,1-7.136-.293c-5.2-1.2-6.648-4.384-6.648-4.384a210.182,210.182,0,0,0,4.778-46.514c0-.485-.007-.963-.009-1.443-.011-.419-.013-.835-.011-1.247.036-14.071,12.617-12.909,12.617-12.909,9.622,2.134,13.5,16.409,14.864,31.495.24,2.7.405,5.425.5,8.107A234.881,234.881,0,0,1,655.965,552.715Z"/><path class="j" d="M656.941,522.517c-5.312,1.393-9.957,2.685-10.825,3.135,0,0-4.119,2.292-4.778-2.408-.274-1.946-1.219-6.456-2.238-11.071l-.864.13-2.351-15.231a5.318,5.318,0,0,1,4.489-6.056l1.487-.227a5.361,5.361,0,0,1,6.117,4.448l2.349,15.233-1.79.272c.224,2.207.377,3.735.377,3.735s3.291.007,7.525-.064C656.679,517.11,656.844,519.834,656.941,522.517Z"/><path class="k" d="M640.113,473.181s-3.21,10.46-2.532,12.7c.269.881,4.926,6.772,9.492,3.03a3.833,3.833,0,0,0,1.372-2.845c.056-1.706.147-4.665.21-7.625Z"/><path class="l" d="M640.124,473.182s-2.044,7.44,8.4,10.769l.134-3.822A14.914,14.914,0,0,1,640.124,473.182Z"/><path class="k" d="M640.115,451.49a6.388,6.388,0,0,1,5.17.485c2.841,1.592,7.355,4.862,8.058,9.84,1.038,7.35,1.919,18.828-6.41,18.965s-15.823-12.29-15.312-17.945C632.061,457.976,634.771,453.3,640.115,451.49Z"/><path class="a" d="M641.266,492.133s5.768-1.861,6.331,1.47,2.2,19.924,2.2,19.924,20.78.043,24.892-1.2l1,4.725s-26.492,6.5-28.685,7.647c0,0-4.119,2.294-4.779-2.41-.533-3.806-3.648-17.417-4.819-22.473a6.875,6.875,0,0,1,1.108-5.662A5.527,5.527,0,0,1,641.266,492.133Z"/><path class="m" d="M5.339,0H6.892A5.338,5.338,0,0,1,12.23,5.338V20.723a0,0,0,0,1,0,0H0a0,0,0,0,1,0,0V5.339A5.339,5.339,0,0,1,5.339,0Z" transform="translate(635.959 490.87) rotate(-8.699)"/><path class="a" d="M692.226,516.276c-.056-.791-2.529-.375-3.833-.4s-1.549-.192-1.4-.332a25.749,25.749,0,0,1,4.058-.659c1.223-.1,3.165-.215,3.072-1.057s-2.039-.583-3.7-.49-3.19.562-3.26.174,5.945-1.45,6.388-1.557,1.9-.364,1.8-1.089-1.408-.61-2.088-.537-2.563.357-4.119.689-2.055.448-2.156.208,3.364-1.509,4.64-1.933,2.342-1.13,1.844-1.818-2.855.336-4.238.833a33.294,33.294,0,0,1-4.785,1.479c-1.017.123-1.912.439-1.9-.1h0c0-.123-.011-.219-.018-.279a3.612,3.612,0,0,1,.952-1.765,2.919,2.919,0,0,0,.493-2.207c-.118-.638-.57-.958-1.3.43a10.662,10.662,0,0,1-3.393,3.6c-1.073.618-1.811.921-1.994,2.239-.059.434-9.634,1.631-11.042,1.75s-.02,5.809,1.114,5.61,10.764-2.875,11.316-2.371,1.135.686,3.144.787c1.006.052,2.934.02,4.541-.028,0,0,3.031-.078,4.189-.226S692.281,517.069,692.226,516.276Z"/><path class="i" d="M635.94,450.8a8.917,8.917,0,0,0-5.321,3.083,8.772,8.772,0,0,0-1.976,5.784,5.8,5.8,0,0,0,2.206,4.635,6.233,6.233,0,0,0,4.948.642,37.411,37.411,0,0,0,4.806-1.8,24.346,24.346,0,0,1,6.912-1.557,39.75,39.75,0,0,0,5-.412,6.4,6.4,0,0,0,4.186-2.507c1.381-2.124.615-5.111-1.155-6.929a13.483,13.483,0,0,0-6.783-3.268,21.722,21.722,0,0,0-6.225-.663,11.254,11.254,0,0,0-5.881,1.941,11.483,11.483,0,0,1-2.64,1.763"/><path class="j" d="M642.19,549.242a35.6,35.6,0,0,0-6.182.135,23.962,23.962,0,0,1-5.161.036c-5.2-1.2-6.648-4.384-6.648-4.384a210.182,210.182,0,0,0,4.778-46.514c2.337,3.538,2.88,10.833,2.6,13.211-.45,3.87-1.824,7.6-2.235,11.474-.6,5.663.818,11.723-1.663,16.861-.759,1.592-1.806,3.686-.493,4.878a3.637,3.637,0,0,0,2.306.663c1.939.108,3.874.211,5.812.32,2.676.144,5.927.688,6.836,3.181A1.4,1.4,0,0,0,642.19,549.242Z"/><path class="i" d="M624.92,459.144c-2.53,4.7-1.967,10.408-.854,15.619s2.722,10.474,2.062,15.759a43.709,43.709,0,0,1-2.245,8.242c-.52,1.571-.99,3.371-.161,4.8s2.624,1.937,4.252,2.255a61.358,61.358,0,0,0,17.884.81c2.57-.261,5.47-.912,6.738-3.144a7.11,7.11,0,0,0,.685-3.815c-.21-5.2-2.441-10.161-5.5-14.385a33.092,33.092,0,0,1-4.057-6.134c-1.155-2.7-1.237-5.719-1.3-8.652-.065-2.843-.052-5.93,1.691-8.189,2.068-2.683,6.318-3.853,6.894-7.181.391-2.257-1.315-4.455-3.411-5.42C640.219,446.317,628.478,452.542,624.92,459.144Z"/></g></svg>