<svg xmlns="http://www.w3.org/2000/svg" xmlns:xlink="http://www.w3.org/1999/xlink" width="384.141" height="91.999" viewBox="0 0 384.141 91.999">
  <defs>
    <linearGradient id="linear-gradient" x1="0.5" y1="1" x2="0.5" gradientUnits="objectBoundingBox">
      <stop offset="0" stop-color="#fe4c1c" stop-opacity="0"/>
      <stop offset="0.112" stop-color="#fe4c1c" stop-opacity="0.02"/>
      <stop offset="0.236" stop-color="#fe4c1c" stop-opacity="0.071"/>
      <stop offset="0.366" stop-color="#fe4c1c" stop-opacity="0.157"/>
      <stop offset="0.501" stop-color="#fe4c1c" stop-opacity="0.282"/>
      <stop offset="0.639" stop-color="#fe4c1c" stop-opacity="0.439"/>
      <stop offset="0.779" stop-color="#fe4c1c" stop-opacity="0.631"/>
      <stop offset="0.92" stop-color="#fe4c1c" stop-opacity="0.859"/>
      <stop offset="1" stop-color="#fe4c1c"/>
    </linearGradient>
  </defs>
  <g id="Векторный_смарт-объект2" data-name="Векторный смарт-объект2" transform="translate(-105.575 -150.968)">
    <path id="Path_29" data-name="Path 29" d="M106.271,186.73c20.737-6.465,41.473-22.977,63.321-22.977s42.955,11.488,64.432,11.488,49.249-23.717,66.284-23.717,39.621,22.606,56.285,22.606,44.436-20.752,60.729-20.752S453.981,174.5,489.16,174.5v68.466H106.271Z" opacity="0.4" fill="url(#linear-gradient)"/>
    <path id="Path_30" data-name="Path 30" d="M106.271,186.73c20.737-6.465,41.473-22.977,63.321-22.977s42.955,11.488,64.432,11.488,49.249-23.717,66.284-23.717,39.621,22.606,56.285,22.606,44.436-20.752,60.729-20.752S453.981,174.5,489.16,174.5" fill="none" stroke="#fe4c1c" stroke-linecap="round" stroke-miterlimit="10" stroke-width="1.111"/>
  </g>
</svg>
