<svg viewBox="0 0 1626 151" xmlns="http://www.w3.org/2000/svg" xmlns:xlink="http://www.w3.org/1999/xlink"><path fill="rgba(255, 255, 255, 1)" d="M 0 0 C 2.5 0 -7.5 94 -5 94 L -5 94 L -5 0 L 0 0 Z" stroke-width="0"></path> <path fill="rgba(255, 255, 255, 1)" d="M -6 94 C 284.5 94 284.5 7 575 7 L 575 7 L 575 0 L -6 0 Z" stroke-width="0"></path> <path fill="rgba(255, 255, 255, 1)" d="M 574 7 C 854 7 854 103 1134 103 L 1134 103 L 1134 0 L 574 0 Z" stroke-width="0"></path><path fill="rgba(255, 255, 255, 1)" d="M 1133 103 C 1375.5 103 1375.5 23 1618 23 L 1618 23 L 1618 0 L 1133 0 Z" stroke-width="0"></path><path fill="rgba(255, 255, 255, 1)" d="M 1617 23 C 1621.5 23 1621.5 0 1626 0 L 1626 0 L 1626 0 L 1617 0 Z" stroke-width="0"></path></svg>