<svg id="visual" viewBox="0 0 1900 150" width="1900" height="150" xmlns="http://www.w3.org/2000/svg" xmlns:xlink="http://www.w3.org/1999/xlink" version="1.1"><path d="M0 27L35.2 26.2C70.3 25.3 140.7 23.7 211 36.3C281.3 49 351.7 76 422 85.5C492.3 95 562.7 87 633 80C703.3 73 773.7 67 844.2 61.2C914.7 55.3 985.3 49.7 1055.8 43.5C1126.3 37.3 1196.7 30.7 1267 33C1337.3 35.3 1407.7 46.7 1478 51.3C1548.3 56 1618.7 54 1689 59.8C1759.3 65.7 1829.7 79.3 1864.8 86.2L1900 93L1900 0L1864.8 0C1829.7 0 1759.3 0 1689 0C1618.7 0 1548.3 0 1478 0C1407.7 0 1337.3 0 1267 0C1196.7 0 1126.3 0 1055.8 0C985.3 0 914.7 0 844.2 0C773.7 0 703.3 0 633 0C562.7 0 492.3 0 422 0C351.7 0 281.3 0 211 0C140.7 0 70.3 0 35.2 0L0 0Z" fill="#fff" stroke-linecap="round" stroke-linejoin="miter"></path></svg>