<svg id="visual" viewBox="0 0 1900 150" width="1900" height="150" xmlns="http://www.w3.org/2000/svg" xmlns:xlink="http://www.w3.org/1999/xlink" version="1.1"><rect x="0" y="0" width="1900" height="150" fill="#fff"></rect><path d="M0 85L39.7 76.8C79.3 68.7 158.7 52.3 237.8 56.3C317 60.3 396 84.7 475.2 82.5C554.3 80.3 633.7 51.7 712.8 41.2C792 30.7 871 38.3 950.2 55C1029.3 71.7 1108.7 97.3 1187.8 89.7C1267 82 1346 41 1425.2 40.2C1504.3 39.3 1583.7 78.7 1662.8 79.7C1742 80.7 1821 43.3 1860.5 24.7L1900 6L1900 151L1860.5 151C1821 151 1742 151 1662.8 151C1583.7 151 1504.3 151 1425.2 151C1346 151 1267 151 1187.8 151C1108.7 151 1029.3 151 950.2 151C871 151 792 151 712.8 151C633.7 151 554.3 151 475.2 151C396 151 317 151 237.8 151C158.7 151 79.3 151 39.7 151L0 151Z" fill="#F0F6FF" stroke-linecap="round" stroke-linejoin="miter"></path></svg>