<svg xmlns="http://www.w3.org/2000/svg" width="11" height="11.001" viewBox="0 0 11 11.001"><g transform="translate(-562 -6225)"><g transform="translate(562 6225)"><path d="M5.5,0A5.5,5.5,0,1,0,11,5.5,5.5,5.5,0,0,0,5.5,0Zm.38,6.172a.371.371,0,0,1,0,.043c0,.011,0,.022,0,.033s-.007.022-.01.033a.388.388,0,0,1-.014.039l0,.007a.377.377,0,0,1-.028.05l0,0a.378.378,0,0,1-.04.049l-.012.012a.364.364,0,0,1-.04.033l-.013.009a.381.381,0,0,1-.057.031l-.013,0a.382.382,0,0,1-.051.016l-.019,0a.379.379,0,0,1-.068.007l-.014,0a.383.383,0,0,1-.065-.007L5.4,6.531a.386.386,0,0,1-.057-.019l-.006,0L3.229,5.515a.38.38,0,1,1,.324-.688l1.566.739V2.282a.38.38,0,0,1,.761,0V6.166h0S5.88,6.17,5.88,6.172Z"/></g><path d="M562,6230.5a5.5,5.5,0,1,1,5.5,5.5A5.5,5.5,0,0,1,562,6230.5Zm3.046-.492a.379.379,0,0,0,.183.505l2.108,1a.01.01,0,0,1,.006,0,.381.381,0,0,0,.058.019.047.047,0,0,0,.019.006.431.431,0,0,0,.066.008l.014,0a.352.352,0,0,0,.067-.008.085.085,0,0,0,.019,0,.519.519,0,0,0,.052-.016l.013,0a.441.441,0,0,0,.058-.032l.013-.009a.367.367,0,0,0,.041-.033.094.094,0,0,1,.013-.013.252.252,0,0,0,.039-.048l0,0c.009-.016.019-.032.028-.05,0,0,0,0,0-.006a.385.385,0,0,0,.014-.039c0-.011.008-.022.011-.033l0-.033a.4.4,0,0,0,0-.043s0,0,0-.006v-3.883a.38.38,0,1,0-.761,0v3.282l-1.567-.739a.379.379,0,0,0-.161-.036A.384.384,0,0,0,565.046,6230.009Z" fill="#a5b7d2"/></g></svg>