<svg xmlns="http://www.w3.org/2000/svg" width="66.782" height="46.795" viewBox="0 0 66.782 46.795">
  <g id="Векторный_смарт-объект" data-name="Векторный смарт-объект" transform="translate(-655.29 -482.051)">
    <g id="Group_4" data-name="Group 4">
      <path id="Path_23" data-name="Path 23" d="M658.19,518.353c-2.5,2.323-.243,6.758,2.925,7.983,3.522,1.362,9.774,1.734,20.315-3.06l6.186-3.144s17.727-12.884,21.934-20.682l-3.594-3.513s-17.78,13.948-24.982,16.705C680.974,512.643,664.657,512.349,658.19,518.353Z" fill="#ffc4b6"/>
      <g id="Group_3" data-name="Group 3">
        <path id="Path_24" data-name="Path 24" d="M721.769,490.373c-.5-.647-2.338,1.137-3.446,1.867s-1.41.73-1.366.524a25.957,25.957,0,0,1,3.027-2.91c.968-.795,2.531-2.014,1.97-2.684s-2.045.675-3.382,1.711-2.353,2.327-2.634,2.033,4.155-4.68,4.466-5.028,1.383-1.409.882-1.973-1.532.288-2.06.744-1.946,1.786-3.06,2.97-1.467,1.573-1.69,1.425,1.957-3.242,2.782-4.343,1.32-2.325.5-2.63-2.2,1.94-3.076,3.165a34.081,34.081,0,0,1-3.165,4.036c-.784.692-1.355,1.48-1.65,1.01h0c-.074-.1-.134-.18-.173-.228a3.791,3.791,0,0,1-.215-2.069,3.08,3.08,0,0,0-.852-2.185c-.464-.479-1.029-.494-.847,1.124a11.205,11.205,0,0,1-.779,5.058c-.545,1.15-.992,1.837-.388,3.077.2.408-7.149,6.967-8.261,7.884s3.316,5.009,4.151,4.182,7.384-8.69,8.135-8.576,1.346-.064,3.091-1.137c.873-.535,2.471-1.678,3.792-2.647,0,0,2.5-1.818,3.384-2.613S722.27,491.022,721.769,490.373Z" fill="#ffc4b6"/>
      </g>
      <path id="Rectangle_2" data-name="Rectangle 2" d="M6.611,0h.635a6.612,6.612,0,0,1,6.612,6.612V24.147a0,0,0,0,1,0,0H0a0,0,0,0,1,0,0V6.611A6.611,6.611,0,0,1,6.611,0Z" transform="translate(657.057 528.846) rotate(-97.33)" fill="#efeddf"/>
    </g>
  </g>
</svg>
